Coordinates
version=1
nRows=49
nColumns=12
inDegrees=yes

Units are S.I. units (second, meters, Newtons, ...)
Angles are in degrees

endheader
time	SC_y	SC_z	SC_x	AC_y	AC_z	AC_x	GH_y	GH_z	GH_yy	EL_x	PS_y
       0.0              -20.08          20.73          5.788          30.77          5.441          10.65          26.75         -17.71         -151.4          90.44          57.05
   0.01661              -20.08          20.73           5.79          30.77          5.439          10.65          26.77          -17.7         -151.3          90.44          57.06
   0.03322              -20.08          20.72          5.791          30.77          5.436          10.65          26.78         -17.69         -151.3          90.44          57.06
   0.04984              -20.08          20.72          5.793          30.77          5.433          10.65           26.8         -17.68         -151.2          90.44          57.07
   0.06645              -20.08          20.72          5.794          30.77           5.43          10.65          26.81         -17.66         -151.2          90.44          57.07
   0.08306              -20.08          20.72          5.796          30.77          5.427          10.65          26.83         -17.65         -151.1          90.44          57.08
   0.09967              -20.08          20.72          5.798          30.78          5.424          10.65          26.85         -17.64         -151.0          90.44          57.09
    0.1163              -20.08          20.72            5.8          30.78          5.421          10.65          26.87         -17.62         -151.0          90.44          57.09
    0.1329              -20.08          20.72          5.802          30.78          5.417          10.64          26.89          -17.6         -150.9          90.44           57.1
    0.1495              -20.08          20.71          5.804          30.78          5.413          10.64          26.91         -17.59         -150.8          90.44          57.11
    0.1661              -20.08          20.71          5.807          30.78          5.408          10.64          26.94         -17.57         -150.7          90.44          57.12
    0.1827              -20.08          20.71           5.81          30.78          5.404          10.64          26.96         -17.55         -150.6          90.44          57.13
    0.1993              -20.08          20.71          5.812          30.78          5.399          10.64          26.99         -17.52         -150.5          90.44          57.14
     0.216              -20.08           20.7          5.816          30.79          5.393          10.64          27.02          -17.5         -150.4          90.44          57.15
    0.2326              -20.08           20.7          5.819          30.79          5.388          10.64          27.05         -17.48         -150.3          90.44          57.16
    0.2492              -20.08           20.7          5.823          30.79          5.381          10.64          27.09         -17.45         -150.2          90.44          57.17
    0.2658              -20.08           20.7          5.827          30.79          5.374          10.63          27.13         -17.42         -150.1          90.43          57.19
    0.2824              -20.08          20.69          5.831           30.8          5.367          10.63          27.17         -17.38         -149.9          90.43           57.2
     0.299              -20.08          20.69          5.836           30.8          5.359          10.63          27.22         -17.35         -149.8          90.43          57.22
    0.3156              -20.08          20.68          5.841           30.8           5.35          10.63          27.27         -17.31         -149.6          90.43          57.23
    0.3322              -20.08          20.68          5.847          30.81           5.34          10.62          27.32         -17.26         -149.4          90.43          57.25
    0.3489              -20.08          20.67          5.853          30.81          5.329          10.62          27.38         -17.22         -149.2          90.43          57.28
    0.3655              -20.07          20.67           5.86          30.81          5.317          10.62          27.45         -17.16         -149.0          90.43           57.3
    0.3821              -20.07          20.66          5.867          30.82          5.304          10.62          27.52          -17.1         -148.7          90.42          57.33
    0.3987              -20.07          20.66          5.876          30.82          5.289          10.61          27.61         -17.04         -148.4          90.42          57.36
    0.4153              -20.07          20.65          5.885          30.83          5.272          10.61           27.7         -16.97         -148.1          90.42          57.39
    0.4319              -20.07          20.64          5.896          30.84          5.254           10.6           27.8         -16.88         -147.7          90.42          57.43
    0.4485              -20.07          20.63          5.908          30.84          5.233           10.6          27.92         -16.79         -147.3          90.42          57.47
    0.4651              -20.07          20.62          5.922          30.85           5.21          10.59          28.05         -16.69         -146.9          90.41          57.51
    0.4818              -20.07          20.61          5.937          30.86          5.183          10.58           28.2         -16.57         -146.4          90.41          57.57
    0.4984              -20.07          20.59          5.955          30.87          5.153          10.58          28.37         -16.44         -145.8           90.4          57.63
     0.515              -20.07          20.58          5.975          30.89          5.118          10.57          28.57         -16.28         -145.1           90.4           57.7
    0.5316              -20.07          20.56          5.998           30.9          5.077          10.56           28.8          -16.1         -144.3          90.39          57.78
    0.5482              -20.06          20.54          6.025          30.92          5.031          10.55          29.06          -15.9         -143.4          90.39          57.87
    0.5648              -20.06          20.51          6.057          30.94          4.976          10.53          29.37         -15.65         -142.4          90.38          57.98
    0.5814              -20.06          20.48          6.094          30.96          4.911          10.52          29.73         -15.37         -141.1          90.37          58.11
     0.598              -20.06          20.44          6.138          30.99          4.835           10.5          30.16         -15.03         -139.7          90.36          58.26
    0.6147              -20.05           20.4          6.191          31.02          4.743          10.47          30.68         -14.62         -137.9          90.35          58.45
    0.6313              -20.05          20.35          6.256          31.06          4.631          10.44          31.31         -14.13         -135.7          90.33          58.67
    0.6479              -20.04          20.29          6.334          31.11          4.495          10.41          32.07         -13.53         -133.1          90.32          58.94
    0.6645              -20.04          20.21          6.431          31.17          4.327          10.37          33.02         -12.78         -129.9          90.29          59.28
    0.6811              -20.03          20.11          6.552          31.25          4.118          10.31          34.19         -11.86         -125.9          90.27          59.69
    0.6977              -20.02          19.99          6.704          31.34          3.855          10.25          35.68         -10.69         -120.8          90.23          60.22
    0.7143               -20.0          19.83          6.898          31.46           3.52          10.16          37.56         -9.209         -114.3          90.18          60.89
    0.7309              -19.99          19.63          7.145          31.62          3.091          10.05          39.97         -7.311         -106.1          90.13          61.75
    0.7475              -19.97          19.38          7.463          31.81           2.54          9.911          43.07         -4.875         -95.44          90.05          62.85
    0.7642              -19.94          19.05          7.869          32.07          1.837          9.732          47.03         -1.764         -81.89          89.96          64.25
    0.7808               -19.9          18.64          8.379          32.39         0.9532          9.506           52.0          2.148         -64.85          89.84          66.02
    0.7974              -19.86          18.14          9.001          32.77         -0.124          9.232          58.06          6.915         -44.09          89.69          68.17
